<svg xmlns="http://www.w3.org/2000/svg" xmlns:xlink="http://www.w3.org/1999/xlink" viewBox="0 0 80 80">
  <symbol id="symbol-phone" viewBox="0 0 19 19">
    <path d="M18.9 14v3.8a1 1 0 0 1-1 1h-1.1A16.8 16.8 0 0 1 0 1a1 1 0 0 1 1-1h3.8a.5.5 0 0 1 .5.5 14.2 14.2 0 0 0 1.4 4.7c0 .3 0 .5-.2.6L4.2 7.5c1.4 3.2 4 5.7 7.2 7.1l1.6-2.2a.5.5 0 0 1 .6-.2 14.6 14.6 0 0 0 4.8 1.3.5.5 0 0 1 .5.6Z" />
  </symbol>
  <symbol id="symbol-user" viewBox="0 0 16 22">
    <path d="M16 21.5H0v-2a5 5 0 0 1 5-5h6a5 5 0 0 1 5 5v2Zm-8-9a6 6 0 1 1 0-12 6 6 0 0 1 0 12Z" />
  </symbol>
  <symbol id="symbol-at" viewBox="0 0 18 18">
    <text x="0" y="13.5" font-family="Arial,sans-serif" font-weight="700" font-size="17">@</text>
  </symbol>
  <symbol id="symbol-arrow" viewBox="0 0 36 26">
    <path d="m1 1 16.8 24M34 1 17.2 25" />
  </symbol>
  <!--phone-->
  <use xlink:href="#symbol-phone" fill="#46A6FF" width="16" height="16"/>
  <view id="phone" viewBox="0 0 16 16"/>
  <!--user-->
  <use xlink:href="#symbol-user" fill="#46A6FF" width="16" height="22" y="16"/>
  <view id="user" viewBox="0 16 16 22"/>
  <!--at-->
  <use xlink:href="#symbol-at" fill="#46A6FF" width="16" height="16" y="38"/>
  <view id="at" viewBox="0 38 16 16"/>
  <!--at-->
  <use xlink:href="#symbol-arrow" stroke="#46A6FF" width="16" height="16" y="54"/>
  <view id="arrow_blue" viewBox="0 54 16 16"/>
  <use xlink:href="#symbol-arrow" stroke="#fff" width="16" height="16" y="54" x="16"/>
  <view id="arrow_white" viewBox="16 54 16 16"/>
</svg>
