<svg viewBox="0 0 31 31" fill="#676767" xmlns="http://www.w3.org/2000/svg">
  <path d="M10.46 0h9.26c8.45 0 10.46 2.01 10.46 10.46v9.26c0 8.45-2.01 10.46-10.46 10.46h-9.26C2.01 30.18 0 28.17 0 19.72v-9.26C0 2.01 2.01 0 10.46 0Z"/>
  <path d="M24.72 10.4c.14-.47 0-.81-.67-.81h-2.2c-.56 0-.82.3-.96.62 0 0-1.12 2.73-2.7 4.5-.51.51-.75.68-1.03.68-.14 0-.34-.17-.34-.63V10.4c0-.56-.16-.81-.63-.81h-3.46c-.35 0-.56.26-.56.5 0 .53.8.66.88 2.15v3.24c0 .71-.13.84-.41.84-.75 0-2.56-2.74-3.64-5.88-.2-.6-.42-.85-.98-.85h-2.2c-.63 0-.76.3-.76.62 0 .58.75 3.47 3.48 7.3 1.81 2.6 4.38 4.02 6.7 4.02 1.4 0 1.58-.31 1.58-.85V18.7c0-.63.13-.76.58-.76.32 0 .88.16 2.19 1.42 1.49 1.5 1.74 2.16 2.57 2.16h2.2c.63 0 .95-.31.77-.93-.2-.62-.91-1.52-1.86-2.58-.51-.6-1.28-1.26-1.51-1.58-.33-.42-.24-.61 0-.98 0 0 2.68-3.78 2.96-5.06Z" fill="#1E1E1E"/>
</svg>
