<svg xmlns="http://www.w3.org/2000/svg" fill="none" viewBox="0 0 32 17"><path fill="#fff" d="M31.2 15.2c0-.2-.6-1.2-3-3.5-2.6-2.3-2.3-1.9.8-6 2-2.3 2.7-3.8 2.5-4.5-.3-.6-1.7-.4-1.7-.4h-4.6s-.4 0-.6.1c-.3.2-.4.5-.4.5s-.8 1.9-1.8 3.5c-2 3.4-2.9 3.5-3.2 3.3-.8-.5-.6-2-.6-3 0-3.3.5-4.6-1-5-.5-.1-.9-.2-2.2-.2-1.7 0-3 0-3.9.4-.5.2-.9.8-.6.8.3 0 1 .2 1.3.7.5.6.5 2 .5 2s.3 3.9-.7 4.4c-.6.3-1.4-.4-3.3-3.5C7.7 3.3 7 1.5 7 1.5L6.7 1C6.4.8 5.9.8 5.9.8H1.5S.8.8.6 1c-.2.2 0 .7 0 .7S4 9.6 8 13.6c3.6 3.6 7.7 3.3 7.7 3.3h1.8s.6 0 .9-.3c.2-.3.2-.8.2-.8s0-2.4 1.1-2.8c1.2-.3 2.6 2.4 4.2 3.4 1.2.8 2 .6 2 .6h4.2s2.2-.2 1.1-1.8z"/></svg>
