<svg viewBox="0 0 18 19" fill="#46A6FF" xmlns="http://www.w3.org/2000/svg">
  <path d="M9.16 18.5c-1.8 0-3.4-.34-4.77-1.02a7.62 7.62 0 0 1-3.24-2.96A9.09 9.09 0 0 1 0 9.8a9.04 9.04 0 0 1 5.75-8.61A9.84 9.84 0 0 1 9.43.5c1.73 0 3.23.33 4.52 1a7.34 7.34 0 0 1 2.98 2.67A6.94 6.94 0 0 1 18 7.95c0 1.22-.23 2.31-.69 3.27a5.55 5.55 0 0 1-1.87 2.25c-.78.54-1.68.82-2.68.82-.28 0-.56-.05-.86-.14a2.4 2.4 0 0 1-.8-.45c-.23-.2-.4-.47-.5-.8a2.44 2.44 0 0 1-1.53 1.26c-.3.1-.63.14-.99.14a3.39 3.39 0 0 1-3.15-2 5.47 5.47 0 0 1 1.75-6.63 4.1 4.1 0 0 1 2.5-.77c.53 0 .98.12 1.34.35.36.23.61.51.74.84l.16-.87h2.36l-.87 4.74-.17 1.02c-.06.33-.1.53-.1.6 0 .17.05.3.15.4.1.1.24.16.42.16.43 0 .82-.17 1.2-.49.36-.33.66-.8.88-1.43a6.4 6.4 0 0 0 .35-2.25 5.1 5.1 0 0 0-.67-2.62 4.61 4.61 0 0 0-2.03-1.82 7.59 7.59 0 0 0-3.39-.67 7.9 7.9 0 0 0-2.9.51A6.41 6.41 0 0 0 3 7.02c-.33.85-.5 1.78-.5 2.8 0 1.34.28 2.48.83 3.42a5.51 5.51 0 0 0 2.36 2.15c1 .5 2.2.75 3.58.75.55 0 1.12-.05 1.72-.14.6-.09 1.21-.21 1.83-.37l-.7 2.62a23.5 23.5 0 0 1-2.95.25Zm-.75-6.51c.47 0 .87-.15 1.2-.44.34-.29.6-.65.77-1.1.18-.44.27-.9.27-1.36 0-.57-.12-1.02-.38-1.36-.26-.33-.62-.5-1.07-.5-.46 0-.86.14-1.2.4-.34.26-.6.61-.78 1.05-.18.43-.28.9-.28 1.43 0 .56.13 1.02.4 1.37.26.34.62.5 1.07.5Z"/>
</svg>
