<svg viewBox="0 0 210 22" fill="#46A6FF" xmlns="http://www.w3.org/2000/svg">
  <path d="M58.732 3.774 62.535.5h10.077l2.49 3.274-2.947 14.472-3.802 3.254H58.266l-2.48-3.254 2.946-14.472ZM66.1 17.207l1.055-.88 2.196-10.782-.57-.742h-3.993l-1.027.9-2.186 10.762.57.742H66.1ZM24.186.639l-4.221 20.723h12.853l3.802-3.255.951-4.668-2.13-2.81 2.425-2.087.95-4.62L36.336.65l-12.15-.01Zm7.348 15.965-1.055.9h-4.325l1.007-4.867h4.468l.57.742-.665 3.225Zm1.027-8.477-1.046.93h-3.622l.951-4.511h3.803l.57.742-.656 2.839ZM57.534.639H41.62l-.98 4.758h5.258l-3.252 15.965h5.42l3.241-15.965h5.257l.97-4.758Zm56.687 3.274L111.739.639h-12.14l-4.23 20.713h5.4l1.416-7.053.951.88h5.58l3.803-3.264 1.702-8.002ZM107.5 10.43l-1.027.9h-3.622l1.397-6.825h3.803l.57.742-1.121 5.183Zm3.613 10.93L120.81.64h6.379l1.711 20.723h-5.704v-3.957h-5.219l-1.702 3.957h-5.162Zm8.442-8.13h3.565l-.095-5.223.114-2.552h-.276l-1.112 2.908-2.196 4.867ZM135.297.639l-4.231 20.723h5.429l3.251-15.965h4.668l4.772-4.758h-13.889Zm25.735 10.87L166.099.64h7.253l-4.211 20.723h-5.438l2.548-12.493h-.228l-1.017 2.7-4.82 9.793h-4.202l-.97-9.793.057-2.7h-.218l-2.548 12.493h-4.649L151.887.639h7.291l.599 10.87v2.602h.2l1.055-2.601ZM180.957.64l-9.687 20.723h5.162l1.701-3.957h5.219v3.957h5.704L187.345.639h-6.388Zm2.31 12.592h-3.594l2.196-4.867 1.113-2.908h.275l-.114 2.552.124 5.223Zm8.794-7.834.969-4.758h16.969l-4.81 4.758h-2.462l-3.251 15.965h-5.41l3.242-15.965h-5.247ZM76.689 15.674l6.77-6.647.74-3.63h4.735l-3.242 15.965h5.41L95.321.639H79.76l-3.07 15.035ZM9.688.639h9.573l-2.918 2.858 1.445 17.865h-5.704v-3.957h-5.22l-1.7 3.957H0L9.687.639ZM8.442 13.23h3.565l-.095-5.223.114-2.552h-.276l-1.112 2.908-2.196 4.867Z"/>
</svg>
